<svg width="24" height="24" viewBox="0 0 24 24" fill="none" xmlns="http://www.w3.org/2000/svg">
<path fill-rule="evenodd" clip-rule="evenodd" d="M22 12C22 17.523 17.523 22 12 22C10.4 22 8.88801 21.624 7.54801 20.956C7.19404 20.7731 6.78542 20.7258 6.39901 20.823L4.17301 21.419C3.95268 21.4778 3.72077 21.4776 3.50054 21.4184C3.28031 21.3593 3.07952 21.2432 2.91833 21.0819C2.75713 20.9206 2.6412 20.7197 2.58217 20.4995C2.52314 20.2792 2.52308 20.0473 2.58201 19.827L3.17701 17.601C3.27379 17.2148 3.22613 16.8065 3.04301 16.453C2.35464 15.0697 1.99756 13.5451 2.00001 12C2.00001 6.477 6.47701 2 12 2C17.523 2 22 6.477 22 12ZM15.53 9.47C15.6705 9.61063 15.7494 9.80125 15.7494 10C15.7494 10.1988 15.6705 10.3894 15.53 10.53L11.53 14.53C11.3913 14.6689 11.2036 14.7479 11.0073 14.7499C10.8109 14.752 10.6216 14.677 10.48 14.541L8.48001 12.621C8.33653 12.4831 8.25371 12.2938 8.24977 12.0948C8.24782 11.9963 8.2653 11.8984 8.3012 11.8066C8.3371 11.7148 8.39072 11.631 8.45901 11.56C8.5273 11.489 8.60891 11.4321 8.69919 11.3926C8.78947 11.353 8.88664 11.3317 8.98516 11.3298C9.18414 11.3258 9.37653 11.4011 9.52001 11.539L10.99 12.95L14.47 9.47C14.6106 9.32955 14.8013 9.25066 15 9.25066C15.1988 9.25066 15.3894 9.32955 15.53 9.47Z" fill="#1A7AA2"/>
</svg>
