<?xml version="1.0" encoding="UTF-8"?>
<svg id="Layer_2" data-name="Layer 2" xmlns="http://www.w3.org/2000/svg" viewBox="0 0 24 24">
  <defs>
    <style>
      .cls-1 {
        fill: #fff;
      }

      .cls-2 {
        fill: #1a7aa2;
        fill-rule: evenodd;
      }

      .cls-3 {
        fill: none;
      }
    </style>
  </defs>
  <g id="Layer_1-2" data-name="Layer 1">
    <g>
      <path class="cls-2" d="m22,12c0,5.52-4.48,10-10,10-1.6,0-3.11-.38-4.45-1.04-.35-.18-.76-.23-1.15-.13l-2.23.6c-.22.06-.45.06-.67,0-.22-.06-.42-.18-.58-.34-.16-.16-.28-.36-.34-.58-.06-.22-.06-.45,0-.67l.6-2.23c.1-.39.05-.79-.13-1.15-.69-1.38-1.05-2.91-1.04-4.45C2,6.48,6.48,2,12,2s10,4.48,10,10Z"/>
      <path class="cls-1" d="m12.12,6.75c2.01,0,2.93,1.28,2.98,2.83h-1.66c-.01-.76-.36-1.33-1.29-1.33-.77,0-1.32.44-1.32,1.47,0,.5.14.98.28,1.45h2.43v1.24h-2.1c.01.1.03.21.03.31,0,.71-.26,1.48-.86,2.09h4.57v1.45h-6.26l-.28-.93c.72-.71,1.12-1.39,1.12-2.62,0-.1-.01-.19-.03-.3h-1.43v-1.24h1.07c-.13-.44-.26-.94-.26-1.59,0-1.78,1.25-2.83,3.02-2.83Z"/>
    </g>
    <rect class="cls-3" width="24" height="24"/>
  </g>
</svg>