<?xml version="1.0" encoding="utf-8"?>
<!-- Generator: Adobe Illustrator 27.5.0, SVG Export Plug-In . SVG Version: 6.00 Build 0)  -->
<svg version="1.1" id="Layer_1" xmlns="http://www.w3.org/2000/svg" xmlns:xlink="http://www.w3.org/1999/xlink" x="0px" y="0px"
	 viewBox="0 0 122 52" style="enable-background:new 0 0 122 52;" xml:space="preserve">
<style type="text/css">
	.st0{fill:#FFFFFF;}
</style>
<path class="st0" d="M61,0c-7.6,0-13.8,6.2-13.8,13.8S53.4,27.5,61,27.5s13.8-6.2,13.8-13.8S68.6,0,61,0z M59,10.3h-4V13h3.6v1.7H55
	v2.8h4v1.7h-6.2V8.6H59V10.3z M67.9,19.3l-0.7-2h-4.2l-0.7,2H60l3.8-10.7h2.5l3.8,10.7H67.9z M63.5,15.5h3.1L65,11.1L63.5,15.5z"/>
<path class="st0" d="M4.3,36v3.1h4.2v2H4.3v3.3H9v2.1H1.7V33.9H9V36H4.3z M14.7,46.7c-0.8,0-1.5-0.1-2.2-0.4
	c-0.6-0.3-1.2-0.7-1.5-1.2c-0.4-0.5-0.6-1.1-0.6-1.7h2.5c0,0.4,0.2,0.7,0.6,1c0.3,0.3,0.8,0.4,1.2,0.4c0.5,0,0.9-0.1,1.1-0.3
	c0.3-0.2,0.4-0.4,0.4-0.7c0-0.3-0.2-0.6-0.5-0.7c-0.3-0.2-0.8-0.3-1.6-0.5c-0.7-0.2-1.4-0.4-1.8-0.6c-0.5-0.2-0.9-0.5-1.2-0.9
	c-0.3-0.4-0.5-0.9-0.5-1.6c0-0.6,0.2-1.1,0.5-1.5c0.3-0.5,0.8-0.8,1.4-1.1c0.6-0.3,1.3-0.4,2.1-0.4c1.2,0,2.1,0.3,2.8,0.9
	c0.7,0.6,1.1,1.4,1.2,2.4h-2.4c0-0.4-0.2-0.7-0.5-0.9c-0.3-0.2-0.7-0.4-1.2-0.4c-0.5,0-0.8,0.1-1.1,0.3C13.1,38.8,13,39,13,39.3
	c0,0.3,0.2,0.6,0.5,0.8c0.3,0.2,0.9,0.3,1.6,0.5c0.7,0.2,1.3,0.4,1.8,0.6c0.5,0.2,0.9,0.5,1.2,0.9c0.3,0.4,0.5,0.9,0.5,1.6
	c0,0.6-0.2,1.1-0.5,1.5c-0.3,0.5-0.8,0.8-1.4,1.1C16.2,46.5,15.5,46.7,14.7,46.7z M23.2,38.6v4.8c0,0.3,0.1,0.6,0.2,0.7
	c0.2,0.1,0.4,0.2,0.8,0.2h1.2v2.1h-1.6c-2.1,0-3.2-1-3.2-3.1v-4.8h-1.2v-2.1h1.2v-2.5h2.5v2.5h2.2v2.1H23.2z M26.1,41.5
	c0-1,0.2-1.9,0.6-2.7c0.4-0.8,1-1.4,1.6-1.8c0.7-0.4,1.5-0.6,2.3-0.6c0.7,0,1.4,0.1,1.9,0.5c0.6,0.3,1,0.7,1.4,1.1v-1.4h2.5v10H34
	V45c-0.3,0.5-0.8,0.9-1.4,1.2c-0.6,0.3-1.2,0.4-2,0.4c-0.8,0-1.6-0.2-2.3-0.6c-0.7-0.4-1.2-1-1.6-1.8C26.3,43.4,26.1,42.5,26.1,41.5
	z M34,41.5c0-0.6-0.1-1.1-0.4-1.6c-0.2-0.4-0.6-0.8-1-1c-0.4-0.2-0.8-0.4-1.3-0.4s-0.9,0.1-1.3,0.3s-0.7,0.6-1,1
	c-0.2,0.4-0.4,0.9-0.4,1.5c0,0.6,0.1,1.1,0.4,1.6c0.3,0.4,0.6,0.8,1,1c0.4,0.2,0.8,0.4,1.3,0.4c0.5,0,0.9-0.1,1.3-0.3
	c0.4-0.2,0.7-0.6,1-1C33.8,42.7,34,42.1,34,41.5z M41.4,38.6v4.8c0,0.3,0.1,0.6,0.2,0.7c0.2,0.1,0.4,0.2,0.8,0.2h1.2v2.1h-1.6
	c-2.1,0-3.2-1-3.2-3.1v-4.8h-1.2v-2.1h1.2v-2.5h2.5v2.5h2.2v2.1H41.4z M54.3,41.3c0,0.4,0,0.7-0.1,1h-7.3c0.1,0.7,0.3,1.3,0.8,1.7
	c0.4,0.4,1,0.6,1.6,0.6c0.9,0,1.6-0.4,2-1.2h2.7c-0.3,1-0.8,1.8-1.7,2.4c-0.8,0.6-1.8,0.9-3,0.9c-1,0-1.8-0.2-2.6-0.6
	c-0.8-0.4-1.3-1-1.8-1.8c-0.4-0.8-0.6-1.7-0.6-2.7c0-1,0.2-1.9,0.6-2.7c0.4-0.8,1-1.4,1.8-1.8c0.8-0.4,1.6-0.6,2.6-0.6
	c0.9,0,1.8,0.2,2.5,0.6c0.8,0.4,1.3,1,1.7,1.7C54.1,39.5,54.3,40.3,54.3,41.3z M51.7,40.6c0-0.6-0.2-1.2-0.7-1.5
	c-0.5-0.4-1-0.6-1.7-0.6c-0.6,0-1.2,0.2-1.6,0.6c-0.4,0.4-0.7,0.9-0.8,1.6H51.7z M67.2,44.1h-5l-0.8,2.4h-2.6l4.5-12.6h2.9l4.5,12.6
	h-2.7L67.2,44.1z M66.6,42.1l-1.8-5.3l-1.8,5.3H66.6z M75.9,36.4c0.7,0,1.4,0.1,2,0.5c0.6,0.3,1,0.7,1.3,1.1v-1.4h2.5v10
	c0,0.9-0.2,1.7-0.6,2.5c-0.4,0.7-0.9,1.3-1.7,1.7c-0.7,0.4-1.6,0.6-2.7,0.6c-1.4,0-2.6-0.3-3.5-1c-0.9-0.7-1.4-1.6-1.5-2.7h2.5
	c0.1,0.5,0.4,0.8,0.8,1.1c0.4,0.3,1,0.4,1.6,0.4c0.7,0,1.3-0.2,1.8-0.7c0.5-0.4,0.7-1.1,0.7-2V45c-0.3,0.5-0.8,0.9-1.3,1.2
	c-0.6,0.3-1.2,0.5-1.9,0.5c-0.8,0-1.6-0.2-2.3-0.6s-1.2-1-1.7-1.8c-0.4-0.8-0.6-1.7-0.6-2.7c0-1,0.2-1.9,0.6-2.7
	c0.4-0.8,1-1.4,1.6-1.8C74.3,36.6,75,36.4,75.9,36.4z M79.2,41.5c0-0.6-0.1-1.1-0.4-1.6c-0.2-0.4-0.6-0.8-1-1
	c-0.4-0.2-0.8-0.4-1.3-0.4s-0.9,0.1-1.3,0.3c-0.4,0.2-0.7,0.6-1,1c-0.2,0.4-0.4,0.9-0.4,1.5c0,0.6,0.1,1.1,0.4,1.6
	c0.3,0.4,0.6,0.8,1,1c0.4,0.2,0.8,0.4,1.3,0.4c0.5,0,0.9-0.1,1.3-0.3c0.4-0.2,0.7-0.6,1-1C79.1,42.7,79.2,42.1,79.2,41.5z M93,41.3
	c0,0.4,0,0.7-0.1,1h-7.3c0.1,0.7,0.3,1.3,0.8,1.7c0.4,0.4,1,0.6,1.6,0.6c0.9,0,1.6-0.4,2-1.2h2.7c-0.3,1-0.8,1.8-1.7,2.4
	c-0.8,0.6-1.8,0.9-3,0.9c-1,0-1.8-0.2-2.6-0.6c-0.8-0.4-1.3-1-1.8-1.8c-0.4-0.8-0.6-1.7-0.6-2.7c0-1,0.2-1.9,0.6-2.7
	c0.4-0.8,1-1.4,1.8-1.8c0.8-0.4,1.6-0.6,2.6-0.6c0.9,0,1.8,0.2,2.5,0.6c0.8,0.4,1.3,1,1.7,1.7C92.8,39.5,93,40.3,93,41.3z
	 M90.4,40.6c0-0.6-0.2-1.2-0.7-1.5c-0.5-0.4-1-0.6-1.7-0.6c-0.6,0-1.2,0.2-1.6,0.6c-0.4,0.4-0.7,0.9-0.8,1.6H90.4z M99.9,36.4
	c1.2,0,2.1,0.4,2.9,1.1c0.7,0.7,1.1,1.8,1.1,3.1v5.8h-2.5V41c0-0.8-0.2-1.4-0.6-1.8c-0.4-0.4-0.9-0.6-1.6-0.6
	c-0.7,0-1.2,0.2-1.7,0.6c-0.4,0.4-0.6,1-0.6,1.8v5.5h-2.5v-10h2.5v1.2c0.3-0.4,0.8-0.8,1.3-1C98.7,36.5,99.3,36.4,99.9,36.4z
	 M108.8,38.6v4.8c0,0.3,0.1,0.6,0.2,0.7c0.2,0.1,0.4,0.2,0.8,0.2h1.2v2.1h-1.6c-2.1,0-3.2-1-3.2-3.1v-4.8H105v-2.1h1.2v-2.5h2.5v2.5
	h2.2v2.1H108.8z M116.2,46.7c-0.8,0-1.5-0.1-2.2-0.4c-0.6-0.3-1.2-0.7-1.5-1.2c-0.4-0.5-0.6-1.1-0.6-1.7h2.5c0,0.4,0.2,0.7,0.6,1
	c0.3,0.3,0.8,0.4,1.2,0.4c0.5,0,0.9-0.1,1.1-0.3c0.3-0.2,0.4-0.4,0.4-0.7c0-0.3-0.2-0.6-0.5-0.7c-0.3-0.2-0.8-0.3-1.6-0.5
	c-0.7-0.2-1.4-0.4-1.8-0.6c-0.5-0.2-0.9-0.5-1.2-0.9c-0.3-0.4-0.5-0.9-0.5-1.6c0-0.6,0.2-1.1,0.5-1.5c0.3-0.5,0.8-0.8,1.4-1.1
	c0.6-0.3,1.3-0.4,2.1-0.4c1.2,0,2.1,0.3,2.8,0.9c0.7,0.6,1.1,1.4,1.2,2.4h-2.4c0-0.4-0.2-0.7-0.5-0.9c-0.3-0.2-0.7-0.4-1.2-0.4
	c-0.5,0-0.8,0.1-1.1,0.3c-0.2,0.2-0.4,0.4-0.4,0.7c0,0.3,0.2,0.6,0.5,0.8c0.3,0.2,0.9,0.3,1.6,0.5c0.7,0.2,1.3,0.4,1.8,0.6
	c0.5,0.2,0.9,0.5,1.2,0.9c0.3,0.4,0.5,0.9,0.5,1.6c0,0.6-0.2,1.1-0.5,1.5c-0.3,0.5-0.8,0.8-1.4,1.1C117.7,46.5,117,46.7,116.2,46.7z
	"/>
</svg>
