<svg width="122" height="52" viewBox="0 0 122 52" fill="none" xmlns="http://www.w3.org/2000/svg">
<circle cx="61" cy="13.75" r="13.75" fill="white"/>
<path d="M55.0032 10.3542V13.0279H58.5934V14.7237H55.0032V17.5501H59.0518V19.2917H52.8643V8.61258H59.0518V10.3542H55.0032ZM67.1525 17.2598H62.9052L62.2025 19.2917H59.9566L63.7914 8.61258H66.2816L70.1164 19.2917H67.8552L67.1525 17.2598ZM66.5719 15.5487L65.0289 11.0876L63.4858 15.5487H66.5719Z" fill="#1A7AA2"/>
<path d="M4.262 35.97V39.12H8.492V41.118H4.262V44.448H9.032V46.5H1.742V33.918H9.032V35.97H4.262ZM14.6881 46.662C13.8721 46.662 13.1401 46.518 12.4921 46.23C11.8441 45.93 11.3281 45.528 10.9441 45.024C10.5721 44.52 10.3681 43.962 10.3321 43.35H12.8701C12.9181 43.734 13.1041 44.052 13.4281 44.304C13.7641 44.556 14.1781 44.682 14.6701 44.682C15.1501 44.682 15.5221 44.586 15.7861 44.394C16.0621 44.202 16.2001 43.956 16.2001 43.656C16.2001 43.332 16.0321 43.092 15.6961 42.936C15.3721 42.768 14.8501 42.588 14.1301 42.396C13.3861 42.216 12.7741 42.03 12.2941 41.838C11.8261 41.646 11.4181 41.352 11.0701 40.956C10.7341 40.56 10.5661 40.026 10.5661 39.354C10.5661 38.802 10.7221 38.298 11.0341 37.842C11.3581 37.386 11.8141 37.026 12.4021 36.762C13.0021 36.498 13.7041 36.366 14.5081 36.366C15.6961 36.366 16.6441 36.666 17.3521 37.266C18.0601 37.854 18.4501 38.652 18.5221 39.66H16.1101C16.0741 39.264 15.9061 38.952 15.6061 38.724C15.3181 38.484 14.9281 38.364 14.4361 38.364C13.9801 38.364 13.6261 38.448 13.3741 38.616C13.1341 38.784 13.0141 39.018 13.0141 39.318C13.0141 39.654 13.1821 39.912 13.5181 40.092C13.8541 40.26 14.3761 40.434 15.0841 40.614C15.8041 40.794 16.3981 40.98 16.8661 41.172C17.3341 41.364 17.7361 41.664 18.0721 42.072C18.4201 42.468 18.6001 42.996 18.6121 43.656C18.6121 44.232 18.4501 44.748 18.1261 45.204C17.8141 45.66 17.3581 46.02 16.7581 46.284C16.1701 46.536 15.4801 46.662 14.6881 46.662ZM23.1647 38.598V43.422C23.1647 43.758 23.2427 44.004 23.3987 44.16C23.5667 44.304 23.8427 44.376 24.2267 44.376H25.3967V46.5H23.8127C21.6887 46.5 20.6267 45.468 20.6267 43.404V38.598H19.4387V36.528H20.6267V34.062H23.1647V36.528H25.3967V38.598H23.1647ZM26.1112 41.478C26.1112 40.47 26.3092 39.576 26.7052 38.796C27.1132 38.016 27.6592 37.416 28.3432 36.996C29.0392 36.576 29.8132 36.366 30.6652 36.366C31.4092 36.366 32.0572 36.516 32.6092 36.816C33.1732 37.116 33.6232 37.494 33.9592 37.95V36.528H36.4972V46.5H33.9592V45.042C33.6352 45.51 33.1852 45.9 32.6092 46.212C32.0452 46.512 31.3912 46.662 30.6472 46.662C29.8072 46.662 29.0392 46.446 28.3432 46.014C27.6592 45.582 27.1132 44.976 26.7052 44.196C26.3092 43.404 26.1112 42.498 26.1112 41.478ZM33.9592 41.514C33.9592 40.902 33.8392 40.38 33.5992 39.948C33.3592 39.504 33.0352 39.168 32.6272 38.94C32.2192 38.7 31.7812 38.58 31.3132 38.58C30.8452 38.58 30.4132 38.694 30.0172 38.922C29.6212 39.15 29.2972 39.486 29.0452 39.93C28.8052 40.362 28.6852 40.878 28.6852 41.478C28.6852 42.078 28.8052 42.606 29.0452 43.062C29.2972 43.506 29.6212 43.848 30.0172 44.088C30.4252 44.328 30.8572 44.448 31.3132 44.448C31.7812 44.448 32.2192 44.334 32.6272 44.106C33.0352 43.866 33.3592 43.53 33.5992 43.098C33.8392 42.654 33.9592 42.126 33.9592 41.514ZM41.4424 38.598V43.422C41.4424 43.758 41.5204 44.004 41.6764 44.16C41.8444 44.304 42.1204 44.376 42.5044 44.376H43.6744V46.5H42.0904C39.9664 46.5 38.9044 45.468 38.9044 43.404V38.598H37.7164V36.528H38.9044V34.062H41.4424V36.528H43.6744V38.598H41.4424ZM54.3069 41.298C54.3069 41.658 54.2829 41.982 54.2349 42.27H46.9449C47.0049 42.99 47.2569 43.554 47.7009 43.962C48.1449 44.37 48.6909 44.574 49.3389 44.574C50.2749 44.574 50.9409 44.172 51.3369 43.368H54.0549C53.7669 44.328 53.2149 45.12 52.3989 45.744C51.5829 46.356 50.5809 46.662 49.3929 46.662C48.4329 46.662 47.5689 46.452 46.8009 46.032C46.0449 45.6 45.4509 44.994 45.0189 44.214C44.5989 43.434 44.3889 42.534 44.3889 41.514C44.3889 40.482 44.5989 39.576 45.0189 38.796C45.4389 38.016 46.0269 37.416 46.7829 36.996C47.5389 36.576 48.4089 36.366 49.3929 36.366C50.3409 36.366 51.1869 36.57 51.9309 36.978C52.6869 37.386 53.2689 37.968 53.6769 38.724C54.0969 39.468 54.3069 40.326 54.3069 41.298ZM51.6969 40.578C51.6849 39.93 51.4509 39.414 50.9949 39.03C50.5389 38.634 49.9809 38.436 49.3209 38.436C48.6969 38.436 48.1689 38.628 47.7369 39.012C47.3169 39.384 47.0589 39.906 46.9629 40.578H51.6969ZM67.2394 44.106H62.2354L61.4074 46.5H58.7614L63.2794 33.918H66.2134L70.7314 46.5H68.0674L67.2394 44.106ZM66.5554 42.09L64.7374 36.834L62.9194 42.09H66.5554ZM75.8761 36.366C76.6201 36.366 77.2741 36.516 77.8381 36.816C78.4021 37.104 78.8461 37.482 79.1701 37.95V36.528H81.7081V46.572C81.7081 47.496 81.5221 48.318 81.1501 49.038C80.7781 49.77 80.2201 50.346 79.4761 50.766C78.7321 51.198 77.8321 51.414 76.7761 51.414C75.3601 51.414 74.1961 51.084 73.2841 50.424C72.3841 49.764 71.8741 48.864 71.7541 47.724H74.2561C74.3881 48.18 74.6701 48.54 75.1021 48.804C75.5461 49.08 76.0801 49.218 76.7041 49.218C77.4361 49.218 78.0301 48.996 78.4861 48.552C78.9421 48.12 79.1701 47.46 79.1701 46.572V45.024C78.8461 45.492 78.3961 45.882 77.8201 46.194C77.2561 46.506 76.6081 46.662 75.8761 46.662C75.0361 46.662 74.2681 46.446 73.5721 46.014C72.8761 45.582 72.3241 44.976 71.9161 44.196C71.5201 43.404 71.3221 42.498 71.3221 41.478C71.3221 40.47 71.5201 39.576 71.9161 38.796C72.3241 38.016 72.8701 37.416 73.5541 36.996C74.2501 36.576 75.0241 36.366 75.8761 36.366ZM79.1701 41.514C79.1701 40.902 79.0501 40.38 78.8101 39.948C78.5701 39.504 78.2461 39.168 77.8381 38.94C77.4301 38.7 76.9921 38.58 76.5241 38.58C76.0561 38.58 75.6241 38.694 75.2281 38.922C74.8321 39.15 74.5081 39.486 74.2561 39.93C74.0161 40.362 73.8961 40.878 73.8961 41.478C73.8961 42.078 74.0161 42.606 74.2561 43.062C74.5081 43.506 74.8321 43.848 75.2281 44.088C75.6361 44.328 76.0681 44.448 76.5241 44.448C76.9921 44.448 77.4301 44.334 77.8381 44.106C78.2461 43.866 78.5701 43.53 78.8101 43.098C79.0501 42.654 79.1701 42.126 79.1701 41.514ZM92.9893 41.298C92.9893 41.658 92.9653 41.982 92.9173 42.27H85.6273C85.6873 42.99 85.9393 43.554 86.3833 43.962C86.8273 44.37 87.3733 44.574 88.0213 44.574C88.9573 44.574 89.6233 44.172 90.0193 43.368H92.7373C92.4493 44.328 91.8973 45.12 91.0813 45.744C90.2653 46.356 89.2633 46.662 88.0753 46.662C87.1153 46.662 86.2513 46.452 85.4833 46.032C84.7273 45.6 84.1333 44.994 83.7013 44.214C83.2813 43.434 83.0713 42.534 83.0713 41.514C83.0713 40.482 83.2813 39.576 83.7013 38.796C84.1213 38.016 84.7093 37.416 85.4653 36.996C86.2213 36.576 87.0913 36.366 88.0753 36.366C89.0233 36.366 89.8693 36.57 90.6133 36.978C91.3693 37.386 91.9513 37.968 92.3593 38.724C92.7793 39.468 92.9893 40.326 92.9893 41.298ZM90.3793 40.578C90.3673 39.93 90.1333 39.414 89.6773 39.03C89.2213 38.634 88.6633 38.436 88.0033 38.436C87.3793 38.436 86.8513 38.628 86.4193 39.012C85.9993 39.384 85.7413 39.906 85.6453 40.578H90.3793ZM99.9047 36.384C101.093 36.384 102.053 36.762 102.785 37.518C103.517 38.262 103.883 39.306 103.883 40.65V46.5H101.363V40.992C101.363 40.2 101.165 39.594 100.769 39.174C100.373 38.742 99.8327 38.526 99.1487 38.526C98.4527 38.526 97.9007 38.742 97.4927 39.174C97.0967 39.594 96.8987 40.2 96.8987 40.992V46.5H94.3787V36.528H96.8987V37.77C97.2347 37.338 97.6607 37.002 98.1767 36.762C98.7047 36.51 99.2807 36.384 99.9047 36.384ZM108.763 38.598V43.422C108.763 43.758 108.841 44.004 108.997 44.16C109.165 44.304 109.441 44.376 109.825 44.376H110.995V46.5H109.411C107.287 46.5 106.225 45.468 106.225 43.404V38.598H105.037V36.528H106.225V34.062H108.763V36.528H110.995V38.598H108.763ZM116.174 46.662C115.358 46.662 114.626 46.518 113.978 46.23C113.33 45.93 112.814 45.528 112.43 45.024C112.058 44.52 111.854 43.962 111.818 43.35H114.356C114.404 43.734 114.59 44.052 114.914 44.304C115.25 44.556 115.664 44.682 116.156 44.682C116.636 44.682 117.008 44.586 117.272 44.394C117.548 44.202 117.686 43.956 117.686 43.656C117.686 43.332 117.518 43.092 117.182 42.936C116.858 42.768 116.336 42.588 115.616 42.396C114.872 42.216 114.26 42.03 113.78 41.838C113.312 41.646 112.904 41.352 112.556 40.956C112.22 40.56 112.052 40.026 112.052 39.354C112.052 38.802 112.208 38.298 112.52 37.842C112.844 37.386 113.3 37.026 113.888 36.762C114.488 36.498 115.19 36.366 115.994 36.366C117.182 36.366 118.13 36.666 118.838 37.266C119.546 37.854 119.936 38.652 120.008 39.66H117.596C117.56 39.264 117.392 38.952 117.092 38.724C116.804 38.484 116.414 38.364 115.922 38.364C115.466 38.364 115.112 38.448 114.86 38.616C114.62 38.784 114.5 39.018 114.5 39.318C114.5 39.654 114.668 39.912 115.004 40.092C115.34 40.26 115.862 40.434 116.57 40.614C117.29 40.794 117.884 40.98 118.352 41.172C118.82 41.364 119.222 41.664 119.558 42.072C119.906 42.468 120.086 42.996 120.098 43.656C120.098 44.232 119.936 44.748 119.612 45.204C119.3 45.66 118.844 46.02 118.244 46.284C117.656 46.536 116.966 46.662 116.174 46.662Z" fill="white"/>
</svg>
